<?xml version="1.0" encoding="UTF-8" standalone="no"?>
<svg
   xmlns:dc="http://purl.org/dc/elements/1.1/"
   xmlns:cc="http://creativecommons.org/ns#"
   xmlns:rdf="http://www.w3.org/1999/02/22-rdf-syntax-ns#"
   xmlns:svg="http://www.w3.org/2000/svg"
   xmlns="http://www.w3.org/2000/svg"
   xmlns:sodipodi="http://sodipodi.sourceforge.net/DTD/sodipodi-0.dtd"
   xmlns:inkscape="http://www.inkscape.org/namespaces/inkscape"
   inkscape:version="1.0beta2 (unknown)"
   sodipodi:docname="freepik.svg"
   version="1.1"
   width="511.99979"
   viewBox="0 0 511.99979 137.96518"
   height="137.96518"
   enable-background="new 0 0 512 512"
   id="Capa_1">
  <metadata
     id="metadata21">
    <rdf:RDF>
      <cc:Work
         rdf:about="">
        <dc:format>image/svg+xml</dc:format>
        <dc:type
           rdf:resource="http://purl.org/dc/dcmitype/StillImage" />
        <dc:title></dc:title>
      </cc:Work>
    </rdf:RDF>
  </metadata>
  <defs
     id="defs19" />
  <sodipodi:namedview
     fit-margin-bottom="0"
     fit-margin-right="0"
     fit-margin-left="0"
     fit-margin-top="0"
     inkscape:current-layer="g14"
     inkscape:window-maximized="1"
     inkscape:window-y="0"
     inkscape:window-x="0"
     inkscape:cy="5.5571145"
     inkscape:cx="300.81573"
     inkscape:zoom="1.5523204"
     inkscape:pagecheckerboard="true"
     showgrid="false"
     id="namedview17"
     inkscape:window-height="1016"
     inkscape:window-width="1920"
     inkscape:pageshadow="2"
     inkscape:pageopacity="0"
     guidetolerance="10"
     gridtolerance="10"
     objecttolerance="10"
     borderopacity="1"
     inkscape:document-rotation="0"
     bordercolor="#666666"
     pagecolor="#ffffff" />
  <g
     transform="translate(-2.1897794e-4,-187.01783)"
     style="fill:#f0feb1;fill-opacity:1"
     id="g14"
     fill="#1273eb">
    <g
       style="fill:#273138;fill-opacity:1;stroke:none;stroke-opacity:1"
       inkscape:export-ydpi="90"
       inkscape:export-xdpi="90"
       id="g1434">
      <path
         inkscape:connector-curvature="0"
         style="fill:#273138;fill-opacity:1;stroke:none;stroke-opacity:1"
         id="XMLID_3728_"
         d="m 22.168,220.963 c -3.474,3.593 -6.491,7.555 -8.868,11.793 l -3.748,-1.935 c -0.549,-2.396 -2.834,-4.054 -5.302,-3.778 -2.651,0.276 -4.571,2.764 -4.205,5.436 0.274,2.672 2.743,4.607 5.394,4.238 0.549,-0.092 1.006,-0.184 1.463,-0.461 l 3.657,1.935 c -2.011,4.515 -3.474,9.213 -4.297,14.097 l 6.034,1.106 c 1.828,-10.596 6.857,-20.27 14.353,-28.101 z" />
      <path
         inkscape:connector-curvature="0"
         style="fill:#273138;fill-opacity:1;stroke:none;stroke-opacity:1"
         id="XMLID_3727_"
         d="m 66.233,202.352 c -1.371,0 -2.743,0.092 -4.114,0.092 l -0.549,-5.067 c 1.463,-1.198 2.377,-3.133 2.103,-5.252 -0.366,-3.225 -3.2,-5.436 -6.399,-5.067 -3.2,0.369 -5.394,3.225 -5.028,6.449 0.274,2.027 1.554,3.778 3.291,4.515 l 0.549,5.067 c -5.759,0.921 -11.245,2.672 -16.547,5.252 l 2.651,5.528 c 7.496,-3.593 15.633,-5.436 24.044,-5.436 4.023,0 7.954,0.461 11.885,1.29 l 1.28,-5.989 c -4.298,-0.922 -8.778,-1.382 -13.166,-1.382 z" />
      <path
         inkscape:connector-curvature="0"
         style="fill:#273138;fill-opacity:1;stroke:none;stroke-opacity:1"
         id="XMLID_3726_"
         d="m 119.257,222.898 c 2.651,-0.369 4.571,-2.764 4.205,-5.436 -0.366,-2.672 -2.743,-4.607 -5.394,-4.238 -2.468,0.276 -4.297,2.488 -4.297,4.883 l -3.383,2.948 c -3.383,-3.501 -7.131,-6.542 -11.336,-9.213 l -3.2,5.16 c 9.142,5.804 16.181,14.004 20.57,23.679 l 5.577,-2.488 c -2.011,-4.515 -4.571,-8.661 -7.588,-12.53 l 3.2,-2.856 c 0.549,0.183 1.098,0.183 1.646,0.091 z" />
      <path
         inkscape:connector-curvature="0"
         style="fill:#273138;fill-opacity:1;stroke:none;stroke-opacity:1"
         id="XMLID_3725_"
         d="m 61.845,284.904 c -3.108,0.184 -6.217,0.276 -9.325,0.276 -7.039,0 -13.896,-0.461 -19.93,-1.474 -3.108,-0.461 -6.765,-1.29 -10.239,-2.396 8.411,15.018 24.684,25.245 43.242,25.245 22.947,0 42.236,-15.479 47.813,-36.485 -5.485,3.593 -12.068,6.634 -19.747,9.121 -9.416,3.134 -20.386,5.068 -31.814,5.713 z" />
      <path
         inkscape:connector-curvature="0"
         style="fill:#273138;fill-opacity:1;stroke:none;stroke-opacity:1"
         id="XMLID_3702_"
         d="m 66.233,214.605 c -26.878,0 -48.819,21.56 -48.819,48.094 0,3.409 0.366,6.91 1.097,10.227 5.394,3.87 21.758,7.186 42.968,5.897 23.129,-1.382 42.511,-7.739 53.572,-17.506 0,-1.566 -0.183,-3.133 -0.366,-4.699 -3.107,-23.954 -23.86,-42.013 -48.452,-42.013 z m -17.37,52.702 c -8.228,0 -14.81,-6.726 -14.81,-14.926 0,-8.292 6.674,-14.926 14.81,-14.926 8.228,0 14.81,6.726 14.81,14.926 0.092,8.2 -6.582,14.926 -14.81,14.926 z m 38.031,-7.371 c -6.034,0 -10.879,-4.975 -10.879,-10.964 0,-6.081 4.937,-10.964 10.879,-10.964 6.034,0 10.879,4.975 10.879,10.964 0.092,6.081 -4.845,10.964 -10.879,10.964 z" />
      <path
         inkscape:connector-curvature="0"
         style="fill:#273138;fill-opacity:1;stroke:none;stroke-opacity:1"
         id="XMLID_3699_"
         d="m 194.679,229.716 c -2.377,-0.921 -6.491,-2.488 -11.062,-1.935 -4.388,0.553 -6.765,2.764 -6.765,8.108 v 7.002 h 17.918 v 13.912 h -17.918 v 44.133 H 161.31 v -44.133 h -10.788 v -13.82 h 10.788 v -7.187 c 0,-13.636 7.222,-22.481 20.661,-22.481 5.12,0 9.325,1.013 12.799,2.488 z" />
      <path
         inkscape:connector-curvature="0"
         style="fill:#273138;fill-opacity:1;stroke:none;stroke-opacity:1"
         id="XMLID_3697_"
         d="m 232.527,256.711 c -1.463,-0.276 -2.834,-0.369 -4.205,-0.369 -7.222,0 -12.159,4.422 -12.159,13.083 v 31.602 h -15.542 v -58.045 h 14.993 v 6.357 c 3.657,-5.436 9.142,-7.924 16.181,-7.924 3.291,0 6.765,1.013 8.776,2.764 z" />
      <path
         inkscape:connector-curvature="0"
         style="fill:#273138;fill-opacity:1;stroke:none;stroke-opacity:1"
         id="XMLID_3694_"
         d="m 294.053,271.913 c 0,1.751 -0.091,3.962 -0.274,5.252 h -40.865 c 1.646,8.384 7.496,12.07 14.81,12.07 5.028,0 10.422,-2.027 14.536,-5.528 l 9.051,10.043 c -6.582,6.081 -14.902,8.845 -24.501,8.845 -17.644,0 -29.895,-12.07 -29.895,-30.404 0,-18.243 11.885,-30.681 29.163,-30.681 16.548,-0.093 27.884,12.253 27.975,30.403 z m -41.048,-5.436 h 25.506 c -1.463,-7.463 -5.851,-11.609 -12.525,-11.609 -7.404,0 -11.609,4.423 -12.981,11.609 z" />
      <path
         inkscape:connector-curvature="0"
         style="fill:#273138;fill-opacity:1;stroke:none;stroke-opacity:1"
         id="XMLID_3682_"
         d="m 355.488,271.913 c 0,1.751 -0.091,3.962 -0.274,5.252 h -40.865 c 1.646,8.384 7.496,12.07 14.81,12.07 5.028,0 10.422,-2.027 14.536,-5.528 l 9.051,10.043 c -6.582,6.081 -14.902,8.845 -24.501,8.845 -17.644,0 -29.895,-12.07 -29.895,-30.404 0,-18.243 11.885,-30.681 29.163,-30.681 16.547,-0.093 27.884,12.253 27.975,30.403 z m -41.048,-5.436 h 25.506 c -1.463,-7.463 -5.851,-11.609 -12.525,-11.609 -7.313,0 -11.61,4.423 -12.981,11.609 z" />
      <path
         inkscape:connector-curvature="0"
         style="fill:#273138;fill-opacity:1;stroke:none;stroke-opacity:1"
         id="XMLID_3679_"
         d="m 422.499,271.913 c 0,17.413 -11.976,30.589 -27.883,30.589 -7.771,0 -13.165,-3.04 -16.913,-7.555 v 30.036 h -15.45 v -82 h 15.176 v 6.449 c 3.748,-4.699 9.233,-7.924 17.187,-7.924 15.907,-0.091 27.883,12.992 27.883,30.405 z m -45.619,0 c 0,9.121 6.034,16.031 14.81,16.031 9.142,0 14.902,-7.094 14.902,-16.031 0,-8.937 -5.668,-16.031 -14.902,-16.031 -8.776,0.092 -14.81,6.91 -14.81,16.031 z" />
      <path
         inkscape:connector-curvature="0"
         style="fill:#273138;fill-opacity:1;stroke:none;stroke-opacity:1"
         id="XMLID_3648_"
         d="m 447.457,223.911 c 0,5.62 -4.297,9.951 -9.965,9.951 -5.577,0 -9.873,-4.33 -9.873,-9.951 0,-5.621 4.297,-10.043 9.873,-10.043 5.577,0 9.965,4.423 9.965,10.043 z m -2.103,77.025 h -15.542 v -58.045 h 15.542 z" />
      <path
         inkscape:connector-curvature="0"
         style="fill:#273138;fill-opacity:1;stroke:none;stroke-opacity:1"
         id="XMLID_3583_"
         d="m 471.226,263.621 21.667,-20.638 h 19.016 L 483.934,270.255 512,300.936 h -19.107 l -21.849,-23.495 v 23.495 h -15.542 v -86.238 h 15.542 v 48.923 z" />
    </g>
  </g>
</svg>
